# xmcd CD database file
#
# Track frame offsets:
#	150
#	15084
#	29547
#	43972
#	52674
#	63917
#	78979
#	93758
#	109419
#	123044
#	136385
#	149948
#	165889
#	180286
#
# Disc length: 2569 seconds
#
# Revision: 0
# Processed by: cddbd v1.5.1PL2 Copyright (c) Steve Scherf et al.
# Submitted via: CDex 1.70beta2
#
DISCID=aa0a070e
DTITLE=Sarah Vaughan - Sarah Vaughan [CD1)
DYEAR=2005
DGENRE=Jazz
TTITLE0=Black Coffee
TTITLE1=It might as well be spring
TTITLE2=Penthouse Serenade (When we're alone)
TTITLE3=Ooh, what 'cha doin' to me
TTITLE4=I can't get started
TTITLE5=Lover Man
TTITLE6=Summertime
TTITLE7=Goodnight, my Love
TTITLE8=You're blase
TTITLE9=Don't worry 'bout me
TTITLE10=Ain't misbehavin'
TTITLE11=That lucky old sun
TTITLE12=Don't blame me
TTITLE13=Sometimes I feel like a motherless child
EXTD=YEAR: 2005
EXTT0=
EXTT1=
EXTT2=
EXTT3=
EXTT4=
EXTT5=
EXTT6=
EXTT7=
EXTT8=
EXTT9=
EXTT10=
EXTT11=
EXTT12=
EXTT13=
PLAYORDER=
